<svg xmlns="http://www.w3.org/2000/svg" xmlns:xlink="http://www.w3.org/1999/xlink" version="1.1" id="Layer_38" x="0px" y="0px" width="100px" height="100px" viewBox="0 0 100 100" enable-background="new 0 0 100 100" xml:space="preserve">
<g>
	<path fill="#000000" d="M78.836,58.948L63.92,44.033c-0.409-0.411-0.832-0.794-1.27-1.16c-0.342-0.29-0.758-0.554-1.115-0.817   c-0.076-0.055-0.285-0.118-0.285-0.173c0,0.001,0,0.001,0,0.002c-7.031-5.04-16.452-5.075-23.513-0.11l5.271,5.241   c0.691,0.691,1.484,1.239,2.311,1.663c3.855-1.849,8.494-1.512,12.059,1.008c0.088,0.064,0.178,0.133,0.264,0.199   c0.452,0.337,0.896,0.699,1.305,1.109l12.932,12.927c4.666,4.666,4.666,12.235,0,16.903c-4.67,4.669-12.236,4.669-16.904,0   L42.046,67.902c-1.798-1.799-2.896-4.029-3.31-6.358c-1.658-0.976-3.223-2.164-4.645-3.587l-4.368-4.367   c-1.64,6.696,0.133,14.055,5.362,19.283L50,87.786c7.962,7.964,20.874,7.964,28.836,0C86.8,79.822,86.8,66.913,78.836,58.948z"/>
	<path fill="#000000" d="M36.08,55.966c0.411,0.41,0.833,0.796,1.27,1.161c0.315,0.266,0.705,0.509,1.029,0.753   c0.106,0.077,0.372,0.165,0.372,0.239c0-0.003,0-0.003,0-0.006c7.031,5.04,16.452,5.074,23.514,0.11l-5.273-5.242   c-0.687-0.689-1.477-1.243-2.301-1.665c-3.817,1.835-8.406,1.516-11.959-0.939c-0.167-0.115-0.329-0.243-0.491-0.366   c-0.408-0.313-0.813-0.633-1.185-1.008l-5.445-5.444l-7.483-7.482c-4.668-4.667-4.668-12.237,0-16.904   c4.668-4.668,12.236-4.668,16.905,0l12.927,12.926c1.802,1.802,2.9,4.039,3.312,6.371c1.656,0.973,3.222,2.152,4.642,3.572   l4.368,4.368c1.64-6.695-0.132-14.054-5.362-19.284L50,12.214c-7.964-7.964-20.873-7.964-28.836,0s-7.964,20.874,0,28.836   l9.533,9.533L36.08,55.966z"/>
</g>
</svg>
