<svg xmlns:dc="http://purl.org/dc/elements/1.1/" xmlns:cc="http://creativecommons.org/ns#" xmlns:rdf="http://www.w3.org/1999/02/22-rdf-syntax-ns#" xmlns:svg="http://www.w3.org/2000/svg" xmlns="http://www.w3.org/2000/svg" xmlns:sodipodi="http://sodipodi.sourceforge.net/DTD/sodipodi-0.dtd" xmlns:inkscape="http://www.inkscape.org/namespaces/inkscape" width="100" height="100" id="svg4061" version="1.1" inkscape:version="0.48.4 r9939" sodipodi:docname="snowman.svg">
  <defs id="defs4063"/>
  <sodipodi:namedview id="base" pagecolor="#ffffff" bordercolor="#666666" borderopacity="1.0" inkscape:pageopacity="0.0" inkscape:pageshadow="2" inkscape:zoom="1.9022309" inkscape:cx="92.689069" inkscape:cy="10.655175" inkscape:document-units="px" inkscape:current-layer="layer1" showgrid="false" inkscape:window-width="1366" inkscape:window-height="721" inkscape:window-x="-4" inkscape:window-y="-4" inkscape:window-maximized="1"/>
  <metadata id="metadata4066">
    <rdf:RDF>
      <cc:Work rdf:about="">
        <dc:format>image/svg+xml</dc:format>
        <dc:type rdf:resource="http://purl.org/dc/dcmitype/StillImage"/>
        <dc:title/>
      </cc:Work>
    </rdf:RDF>
  </metadata>
  <g inkscape:label="Layer 1" inkscape:groupmode="layer" id="layer1" transform="translate(0,-952.36218)">
    <path style="font-size:medium;font-style:normal;font-variant:normal;font-weight:normal;font-stretch:normal;text-indent:0;text-align:start;text-decoration:none;line-height:normal;letter-spacing:normal;word-spacing:normal;text-transform:none;direction:ltr;block-progression:tb;writing-mode:lr-tb;text-anchor:start;baseline-shift:baseline;color:#000000;fill:#000000;fill-opacity:1;stroke:none;stroke-width:5;marker:none;visibility:visible;display:inline;overflow:visible;enable-background:accumulate;font-family:Sans;-inkscape-font-specification:Sans" d="m 31.999383,976.09814 a 2.50025,2.50025 0 0 0 -2.25,2.5 l 0,4.25 -7.90625,0 a 2.50025,2.50025 0 0 0 -0.25,0 2.503123,2.503123 0 1 0 0.25,5 l 7.90625,0 0,4.25 a 2.50025,2.50025 0 0 0 2.5,2.5 l 4.03125,0 a 2.50025,2.50025 0 0 0 2.5,-2.5 l 0,-4.25 39.46875,0 a 2.50025,2.50025 0 1 0 0,-5 l -39.46875,0 0,-4.25 a 2.50025,2.50025 0 0 0 -2.5,-2.5 l -4.03125,0 a 2.50025,2.50025 0 0 0 -0.25,0 z m 31.8125,17 a 2.50025,2.50025 0 0 0 -2.5,2.5 l 0,4.25 -39.46875,0 a 2.50025,2.50025 0 1 0 0,4.99996 l 39.46875,0 0,4.2812 a 2.50025,2.50025 0 0 0 2.5,2.5 l 4.03125,0 a 2.50025,2.50025 0 0 0 2.5,-2.5 l 0,-4.2812 7.90625,0 a 2.50025,2.50025 0 1 0 0,-4.99996 l -7.90625,0 0,-4.25 a 2.50025,2.50025 0 0 0 -2.5,-2.5 l -4.03125,0 z m -15.78125,17.03116 a 2.50025,2.50025 0 0 0 -2.5,2.5 l 0,4.25 -23.6875,0 a 2.50025,2.50025 0 0 0 -0.25,0 2.503123,2.503123 0 1 0 0.25,5 l 23.6875,0 0,4.25 a 2.50025,2.50025 0 0 0 2.5,2.5 l 4.03125,0 a 2.50025,2.50025 0 0 0 2.5,-2.5 l 0,-4.25 23.6875,0 a 2.50025,2.50025 0 1 0 0,-5 l -23.6875,0 0,-4.25 a 2.50025,2.50025 0 0 0 -2.25,-2.5 2.50025,2.50025 0 0 0 -0.25,0 l -4.03125,0 z" id="path3926" inkscape:connector-curvature="0"/>
  </g>
</svg>